<svg id="Layer_1" data-name="Layer 1" xmlns="http://www.w3.org/2000/svg" viewBox="0 0 18 15.39"><title>icon</title><path d="M10.59,7.66a.89.89,0,0,1,1,.16,6.9,6.9,0,0,1,1.35,3.8,8.47,8.47,0,0,1-.87,4.06c-.43.6-.86.6-1.19.38S5.5,12,5.23,11.89s-.38.16-.11,1.61-.17,1.91-.55,2S3.06,15.2,3,12.16s.76-3.52,1.14-3.52c.71,0,6.13,4.86,6.5,4.82s.49-2.11-.14-3.74.09-2.06.09-2.06m8.71-3A16.28,16.28,0,0,1,21,12a16.28,16.28,0,0,1-1.7,7.37,1,1,0,0,1-1.18.22c-.7-.33-.46-1.19-.46-1.19a14.92,14.92,0,0,0,1.44-6.35V12a15.28,15.28,0,0,0-1.44-6.4s-.24-.86.46-1.19a1,1,0,0,1,1.18.22M15.77,6.25A11.44,11.44,0,0,1,17.14,12a12.14,12.14,0,0,1-1.37,5.85,1,1,0,0,1-1.18.22c-.7-.33-.46-1.19-.46-1.19s1-1.38,1.11-4.83V12c-.1-3.47-1.11-4.77-1.11-4.77s-.24-.87.46-1.19A1,1,0,0,1,15.77,6.25Z" transform="translate(-3 -4.3)"/></svg>